<svg xmlns="http://www.w3.org/2000/svg" viewBox="0 0 24 24"><path d="M20.109,4.76a5.1,5.1,0,0,0-2.878-3.4C14.887.289,12.837,1.884,12,2.7,11.163,1.884,9.113.289,6.769,1.362a5.1,5.1,0,0,0-2.878,3.4,4.415,4.415,0,0,0,.761,3.779A63.26,63.26,0,0,0,9.8,13.624l-.569,1.455a.515.515,0,0,0,.479.7h1.773v6.7a.515.515,0,0,0,1.03,0v-6.7h1.773a.515.515,0,0,0,.482-.7l-.556-1.476a63.009,63.009,0,0,0,5.134-5.07A4.415,4.415,0,0,0,20.109,4.76Zm-9.642,9.992L10.762,14h2.5l.283.753Zm8.065-6.844a60.545,60.545,0,0,1-5.142,5.06H10.61a60.545,60.545,0,0,1-5.142-5.06,3.384,3.384,0,0,1-.576-2.9A4.073,4.073,0,0,1,7.2,2.3c2.274-1.04,4.384,1.451,4.4,1.476a.534.534,0,0,0,.794,0c.021-.026,2.127-2.518,4.4-1.476a4.073,4.073,0,0,1,2.306,2.708A3.384,3.384,0,0,1,18.532,7.908Z" style='fill:pink'/><path d="M8.033,3.222A2.778,2.778,0,0,0,6.34,5.064a2.811,2.811,0,0,0,.618,2.389.515.515,0,1,0,.816-.629A1.816,1.816,0,0,1,7.34,5.311,1.833,1.833,0,0,1,8.464,4.159a.516.516,0,0,0-.431-.937Z" style='fill:#ffffff'/></svg>